<svg version="1.1" id="layer" xmlns="http://www.w3.org/2000/svg" x="0px" y="0px"
     viewBox="0 0 652 450" style="enable-background:new 0 0 652 652;" xml:space="preserve">
<style type="text/css">
	.st0{fill:#000000;}
</style>
    <g id="Layer_2">
	<g id="art">
		<path class="st0"
              d="M209,230.4c0-23.2-17.3-42.8-40.4-45.6c-7.7,29.9-7.7,61.3,0,91.2C191.7,273.2,209,253.7,209,230.4z"/>
        <path class="st0" d="M235.7,216c-8,0-14.5,6.4-14.5,14.4c0,8,6.4,14.5,14.4,14.5c8,0,14.5-6.4,14.5-14.4c0,0,0,0,0-0.1
			C250.2,222.5,243.7,216,235.7,216z"/>
        <path class="st0"
              d="M434.9,230.4c0,23.2,17.3,42.8,40.4,45.6c7.7-29.9,7.7-61.3,0-91.2C452.2,187.7,434.9,207.2,434.9,230.4z"/>
        <path class="st0" d="M408.1,216c-8-0.1-14.5,6.3-14.6,14.3c-0.1,8,6.3,14.5,14.3,14.6c8,0.1,14.5-6.3,14.6-14.3c0-0.1,0-0.1,0-0.2
			C422.4,222.5,416,216.1,408.1,216z"/>
        <path class="st0"
              d="M321.6,343.7c-23.2,0-42.8,17.3-45.6,40.4c29.9,7.7,61.3,7.7,91.2,0C364.4,361,344.8,343.7,321.6,343.7z"/>
        <path class="st0" d="M321.6,302.6c-8,0-14.5,6.4-14.5,14.4c0,8,6.4,14.5,14.4,14.5c8,0,14.5-6.4,14.5-14.4c0,0,0,0,0-0.1
			C336,309.1,329.6,302.6,321.6,302.6z"/>
        <path class="st0"
              d="M321.6,117.8c23.2,0,42.8-17.3,45.6-40.4c-29.9-7.7-61.3-7.7-91.2,0C278.8,100.5,298.4,117.8,321.6,117.8z"/>
        <path class="st0" d="M321.6,130.1c-8,0-14.4,6.5-14.4,14.4c0,8,6.5,14.4,14.4,14.4s14.4-6.5,14.4-14.4l0,0
			C336,136.6,329.6,130.1,321.6,130.1z"/>
        <path class="st0" d="M401.6,310.4c-16.4,16.4-18,42.4-3.7,60.7c26.6-15.7,48.8-37.9,64.5-64.5C444.1,292.5,418,294.1,401.6,310.4z
			"/>
        <path class="st0" d="M372.5,281.3c-5.6,5.6-5.6,14.8,0,20.4c5.6,5.6,14.8,5.6,20.4,0c5.6-5.6,5.6-14.8,0-20.4c0,0,0,0,0,0
			C387.3,275.7,378.1,275.7,372.5,281.3z"/>
        <path class="st0" d="M241.9,150.7c16.4-16.4,18-42.4,3.8-60.7c-26.6,15.7-48.8,37.9-64.5,64.5
			C199.4,168.7,225.5,167.1,241.9,150.7z"/>
        <path class="st0" d="M250.6,159.4c-5.6,5.6-5.6,14.8,0,20.4c5.6,5.6,14.8,5.6,20.4,0c5.6-5.6,5.6-14.8,0-20.4c0,0,0,0,0,0
			C265.4,153.8,256.2,153.8,250.6,159.4z"/>
        <path class="st0" d="M401.5,150.5c16.4,16.4,42.5,18,60.7,3.8c-15.7-26.6-37.9-48.8-64.5-64.5
			C383.5,108.1,385.1,134.1,401.5,150.5z"/>
        <path class="st0" d="M392.8,179.7c5.6-5.6,5.7-14.8,0-20.4c-5.6-5.6-14.8-5.7-20.4,0c-5.6,5.6-5.7,14.8,0,20.4c0,0,0,0,0,0
			C378,185.3,387.2,185.3,392.8,179.7z"/>
        <path class="st0" d="M241.8,310.3c-16.4-16.4-42.4-18-60.7-3.8c15.7,26.6,37.8,48.8,64.4,64.5
			C259.7,352.7,258.2,326.7,241.8,310.3z"/>
        <path class="st0" d="M250.5,281.1c-5.6,5.6-5.6,14.8,0,20.4s14.8,5.6,20.4,0c5.6-5.6,5.6-14.8,0-20.4c0,0,0,0,0,0
			C265.3,275.5,256.2,275.5,250.5,281.1z"/>
	</g>
</g>
</svg>


